<?xml version="1.0" standalone="no"?>
<!DOCTYPE svg PUBLIC "-//W3C//DTD SVG 20010904//EN"
 "http://www.w3.org/TR/2001/REC-SVG-20010904/DTD/svg10.dtd">
<svg version="1.0" xmlns="http://www.w3.org/2000/svg"
 width="730.000000pt" height="730.000000pt" viewBox="0 0 730.000000 730.000000"
 preserveAspectRatio="xMidYMid meet">
<metadata>
Created by potrace 1.14, written by Peter Selinger 2001-2017
</metadata>
<g transform="translate(0.000000,730.000000) scale(0.100000,-0.100000)"
fill="#000000" stroke="none">
<path d="M3760 6073 c-48 -4 -111 -19 -203 -49 -80 -25 -227 -89 -237 -103 -3
-4 -22 -17 -42 -30 -21 -12 -52 -34 -70 -49 -45 -37 -208 -203 -208 -212 0 -4
-10 -18 -22 -32 -37 -41 -58 -68 -58 -74 0 -3 -13 -17 -30 -31 -16 -13 -30
-30 -30 -36 0 -13 -65 -143 -120 -242 -57 -102 -60 -109 -54 -127 4 -13 0 -18
-13 -18 -11 0 -14 -3 -7 -8 7 -5 7 -14 -1 -29 -7 -13 -15 -20 -18 -16 -4 3 -7
-4 -6 -18 1 -13 -9 -62 -21 -109 -12 -47 -26 -103 -32 -124 -7 -30 -12 -36
-19 -25 -7 10 -8 5 -3 -13 4 -18 2 -28 -5 -28 -6 0 -11 -9 -11 -19 0 -11 -4
-23 -10 -26 -5 -3 -10 -16 -10 -28 0 -18 -2 -19 -10 -7 -8 11 -9 7 -4 -14 5
-20 4 -27 -4 -22 -7 4 -10 2 -6 -7 3 -8 -2 -20 -11 -27 -8 -7 -15 -23 -15 -37
0 -13 -4 -22 -9 -19 -9 6 -51 -95 -51 -123 0 -9 -4 -21 -9 -27 -4 -5 -13 -41
-19 -80 -7 -39 -27 -105 -47 -148 -19 -42 -35 -81 -35 -87 0 -16 18 -10 22 9
3 14 5 12 10 -6 5 -18 -4 -36 -40 -80 -25 -31 -49 -58 -54 -60 -4 -2 -8 -10
-8 -18 0 -8 -4 -14 -10 -14 -5 0 -10 -7 -10 -15 0 -23 22 -8 70 51 24 30 49
54 55 53 6 0 6 -2 -1 -5 -6 -2 -8 -19 -6 -36 3 -23 1 -29 -8 -23 -9 5 -10 2
-6 -12 7 -21 -49 -143 -65 -143 -5 0 -9 -5 -9 -11 0 -7 10 -5 25 5 26 17 26
17 19 -11 -9 -39 -22 -63 -55 -101 -33 -38 -35 -45 -14 -66 18 -17 20 -42 4
-51 -6 -4 -8 -13 -5 -21 3 -8 2 -14 -3 -14 -16 0 -49 -85 -45 -115 4 -26 3
-27 -6 -10 -9 17 -9 16 -5 -9 4 -18 0 -37 -12 -55 -9 -14 -38 -67 -64 -118
-25 -50 -56 -104 -68 -119 -11 -14 -21 -30 -21 -34 0 -14 -78 -125 -104 -147
-14 -12 -47 -34 -73 -48 -47 -25 -47 -25 -13 -19 46 7 119 58 164 114 20 25
41 50 46 57 33 40 134 223 146 264 8 27 18 49 22 49 4 0 13 12 19 28 6 15 18
38 26 52 7 14 40 78 72 143 32 64 60 115 62 113 2 -2 -8 -50 -22 -106 -14 -57
-25 -109 -25 -117 0 -21 -39 -105 -60 -128 -10 -11 -29 -42 -44 -70 -30 -58
-29 -74 17 -240 40 -148 42 -159 23 -174 -9 -8 -16 -19 -16 -25 0 -6 -21 -33
-46 -61 -25 -27 -64 -75 -87 -105 -23 -30 -49 -63 -58 -73 -9 -10 -32 -48 -50
-85 -31 -59 -34 -73 -31 -137 4 -105 6 -114 30 -131 12 -8 22 -25 22 -38 0
-28 -44 -71 -64 -63 -9 4 -16 2 -16 -3 0 -8 -28 -21 -60 -26 -23 -4 -60 -27
-60 -37 0 -5 14 -7 33 -3 17 4 51 9 75 13 l42 6 0 -79 c0 -75 -2 -80 -40 -135
-22 -32 -39 -63 -37 -71 2 -7 2 -10 0 -5 -8 13 -23 8 -23 -8 0 -8 9 -15 20
-15 11 0 20 5 20 11 0 6 9 22 19 36 l20 24 6 -33 c4 -21 0 -47 -10 -73 -15
-35 -18 -38 -30 -22 -16 22 -25 22 -25 -2 0 -11 9 -23 20 -26 11 -4 20 -12 19
-18 -6 -48 3 -187 11 -182 32 20 -5 -178 -48 -255 -58 -103 -68 -120 -92 -147
-39 -42 -43 -52 -21 -46 13 3 21 -2 26 -16 8 -27 23 -27 52 1 31 29 36 20 18
-32 -18 -50 -14 -61 8 -28 8 13 29 39 47 58 45 49 67 96 80 171 15 85 41 191
49 204 4 6 8 25 9 42 3 43 41 115 64 121 10 2 18 10 18 17 0 6 19 20 43 31 23
10 48 25 55 34 11 13 13 10 9 -20 -3 -19 -9 -44 -13 -54 -6 -15 -4 -17 7 -10
8 4 22 7 32 6 12 -2 19 5 23 27 4 17 12 31 19 31 19 0 52 75 64 144 14 74 45
139 76 160 26 17 72 18 93 3 7 -6 14 -8 15 -6 3 4 33 107 57 199 24 86 26 89
43 50 8 -19 20 -84 26 -143 12 -107 41 -261 62 -325 8 -25 15 -32 28 -26 9 3
30 10 46 14 24 6 26 8 8 9 -19 1 -23 7 -23 31 0 17 -4 30 -10 30 -18 0 -11 20
8 21 13 0 12 2 -5 9 -23 9 -32 45 -13 52 6 2 6 16 -1 41 -6 22 -8 45 -5 52 2
7 -4 15 -16 18 -19 5 -20 11 -15 66 5 46 4 60 -6 58 -17 -3 -15 11 8 60 12 25
25 41 33 38 6 -2 12 2 12 11 0 8 8 17 18 21 22 8 56 43 42 43 -7 0 -5 6 4 15
8 8 23 15 34 15 20 0 52 29 52 48 0 7 4 12 10 12 19 0 50 35 50 57 0 21 5 23
50 23 39 0 50 3 50 16 0 11 5 14 17 10 19 -8 72 43 65 63 -3 8 4 10 22 5 37
-9 82 4 67 19 -19 19 -13 32 25 52 29 15 39 17 55 7 10 -7 32 -12 49 -12 16 0
30 -4 30 -10 0 -5 10 -10 22 -10 12 0 18 3 15 7 -4 3 2 12 13 20 11 8 20 20
20 27 0 12 65 46 88 46 7 0 12 -11 12 -23 0 -20 5 -24 30 -25 17 0 46 -6 65
-12 19 -6 39 -9 45 -5 5 3 10 1 10 -4 0 -6 7 -11 15 -11 8 0 15 -4 15 -10 0
-5 14 -10 32 -10 28 0 75 27 116 66 18 19 15 37 -5 29 -37 -15 -53 -17 -53 -6
0 6 -8 11 -17 11 -27 0 -92 34 -93 48 0 8 -6 11 -12 8 -7 -3 -21 -9 -30 -12
-10 -4 -18 -10 -18 -15 0 -5 -18 -9 -40 -9 -41 0 -53 13 -24 24 12 5 14 10 5
20 -6 7 -7 16 -3 21 4 4 -11 5 -33 1 l-40 -7 28 15 c21 11 34 13 47 6 29 -16
48 -12 26 5 -24 18 -21 20 27 29 41 8 60 -12 37 -39 -10 -13 -8 -15 13 -15 14
0 32 -3 40 -6 12 -4 14 0 10 15 -7 26 17 36 55 23 21 -7 37 -6 61 4 23 10 38
11 51 4 10 -5 32 -7 49 -4 24 5 31 3 31 -9 0 -9 -8 -21 -17 -26 -16 -9 -14
-12 15 -23 17 -7 32 -15 32 -18 0 -3 -13 -14 -29 -24 -36 -24 -51 -49 -41 -66
6 -10 13 -9 34 6 14 11 26 25 26 32 0 20 34 10 38 -12 2 -10 -5 -24 -17 -33
-12 -8 -19 -18 -16 -23 3 -5 -19 -7 -50 -4 l-55 5 0 -30 c0 -29 17 -41 33 -25
4 4 20 8 37 9 43 4 27 -9 -77 -61 -30 -14 -53 -32 -53 -41 0 -11 -7 -14 -27
-9 -19 5 -23 4 -14 -3 11 -7 9 -14 -13 -35 -14 -15 -26 -30 -26 -33 0 -3 -16
-28 -36 -55 -19 -27 -39 -60 -44 -74 -8 -21 -26 -29 -52 -25 -5 0 -8 -4 -8 -9
0 -5 -3 -9 -7 -8 -14 2 -43 -14 -43 -24 0 -6 9 -8 21 -5 16 4 18 3 8 -9 -6 -8
-19 -14 -29 -14 -10 0 -21 -8 -24 -17 -6 -14 -9 -15 -15 -4 -15 24 -28 3 -25
-40 3 -49 14 -65 14 -21 0 38 28 59 85 64 32 2 40 -1 43 -16 2 -10 -2 -29 -9
-42 -9 -19 -10 -30 -1 -50 13 -28 8 -44 -13 -44 -18 0 -100 -39 -153 -74 -24
-15 -50 -25 -58 -22 -17 6 -179 -47 -203 -67 -24 -19 -62 -35 -101 -41 -64
-10 -199 -54 -210 -67 -9 -11 -44 -18 -110 -23 -36 -3 -85 -12 -109 -20 -52
-19 -110 -20 -146 -4 -21 10 -29 9 -43 -5 -10 -11 -12 -17 -4 -17 9 0 9 -4 1
-19 -10 -15 -7 -26 18 -62 54 -77 105 -113 205 -144 81 -25 101 -27 187 -22
140 8 237 32 290 73 44 34 71 43 71 24 0 -5 11 -10 25 -10 14 0 25 4 25 8 0 5
11 14 25 20 16 7 25 19 23 29 -4 23 149 74 162 54 7 -12 14 -12 37 -2 28 11
97 10 110 -2 3 -4 0 -50 -6 -104 -16 -130 -21 -154 -32 -147 -5 3 -9 0 -9 -5
0 -6 -8 -11 -18 -11 -20 0 -62 -27 -62 -39 0 -5 13 -14 30 -21 l30 -12 -27
-29 c-15 -15 -38 -30 -52 -34 -50 -11 -83 -28 -71 -35 7 -5 1 -10 -16 -14 -16
-4 -51 -32 -79 -61 -49 -54 -51 -54 -116 -58 -44 -3 -75 -10 -92 -23 -31 -22
-33 -31 -10 -56 13 -14 13 -18 2 -19 -8 0 -3 -4 9 -10 58 -23 -18 -52 -100
-39 -24 4 -51 11 -62 15 -17 7 -18 4 -14 -25 4 -30 4 -31 -9 -15 -7 11 -13 25
-13 32 0 21 -44 43 -97 49 -42 4 -52 2 -58 -13 -6 -17 -8 -16 -15 4 -8 18 -19
22 -77 26 -37 3 -88 10 -113 16 -25 6 -85 18 -135 27 -49 8 -97 17 -106 20 -9
2 -24 -2 -32 -11 -9 -8 -20 -15 -26 -15 -15 0 -51 50 -51 72 0 12 -6 18 -17
16 -10 -2 -17 3 -16 10 4 16 -42 16 -101 0 -33 -9 -51 -9 -69 -1 -23 11 -25 8
-56 -59 -21 -46 -39 -72 -53 -75 -18 -5 -19 -10 -12 -47 4 -23 8 -68 9 -101 2
-59 23 -126 43 -139 6 -3 8 -14 5 -25 -6 -25 33 -101 67 -128 31 -25 48 -72
30 -83 -8 -5 -1 -22 20 -54 25 -36 37 -46 59 -46 16 0 34 7 41 15 18 22 29 19
36 -10 5 -21 12 -25 46 -25 27 0 45 6 54 18 8 10 13 12 14 5 0 -16 109 -11
119 6 4 7 28 14 54 16 25 2 55 9 67 15 18 10 21 9 18 -2 -2 -7 -19 -19 -36
-27 -18 -8 -32 -21 -32 -29 0 -12 -3 -12 -15 -2 -12 10 -26 9 -73 -8 -61 -22
-158 -45 -182 -45 -8 0 -20 -3 -26 -8 -5 -5 -42 -7 -81 -6 -39 1 -74 0 -77 -3
-3 -3 1 -24 9 -45 8 -22 14 -50 15 -62 0 -19 6 -23 29 -23 23 0 30 5 33 22 2
18 10 24 39 26 23 2 40 -2 49 -12 9 -12 9 -16 1 -16 -7 0 -9 -4 -6 -10 4 -6
55 -10 120 -10 101 0 114 2 108 16 -4 12 -14 15 -42 10 -44 -7 -75 8 -51 24 8
6 23 8 33 6 9 -2 15 -1 13 3 -3 4 10 13 29 20 27 9 38 9 54 -1 12 -7 21 -16
21 -20 0 -4 11 -19 25 -33 19 -18 36 -25 65 -25 38 0 54 14 28 22 -7 3 -12 21
-12 41 0 20 -4 37 -8 37 -4 0 -8 5 -8 11 0 5 5 7 10 4 6 -3 10 -1 10 5 0 12
24 40 34 40 4 0 1 -9 -6 -20 -11 -17 -10 -28 5 -68 10 -26 19 -52 19 -59 1 -9
95 -12 400 -12 295 0 397 3 392 11 -5 8 -2 9 12 2 10 -5 141 -10 289 -11 149
-1 260 1 247 5 -23 7 -23 7 -3 24 34 29 80 49 116 50 25 1 33 4 25 12 -5 5
-10 19 -10 29 0 12 -5 17 -14 14 -8 -3 -20 1 -26 9 -7 8 -20 14 -30 14 -10 0
-23 6 -29 14 -10 12 -8 17 8 26 12 6 21 7 21 3 0 -4 5 -2 12 5 7 7 24 12 39
12 31 0 51 19 22 21 -55 2 -221 -2 -236 -7 -22 -7 -59 5 -52 17 4 5 1 9 -4 9
-6 0 -11 -4 -11 -10 0 -6 -9 -6 -26 0 -14 6 -36 10 -49 10 -12 0 -25 7 -29 15
-3 8 -13 15 -22 15 -13 0 -14 3 -4 15 7 8 11 15 9 16 -28 6 -57 3 -78 -8 -27
-14 -141 -16 -141 -2 0 4 17 11 38 14 20 4 44 9 52 12 8 4 21 5 29 4 23 -4 0
20 -33 35 -17 7 -24 13 -15 14 9 0 34 -7 54 -16 30 -12 35 -18 24 -26 -12 -8
-11 -9 2 -5 8 3 34 2 57 -3 25 -4 45 -3 51 3 6 6 11 7 11 2 0 -6 5 -3 11 5 8
11 12 12 16 3 3 -10 10 -10 25 -2 15 8 17 14 9 22 -6 6 -11 20 -11 32 0 11 -4
16 -8 10 -9 -13 -39 -18 -68 -11 -28 7 -54 53 -54 96 0 17 -5 30 -12 31 -34 3
-94 -4 -116 -12 -42 -16 -36 -1 8 19 l42 19 -44 21 c-49 23 -62 36 -71 70 -7
30 17 40 42 18 10 -9 23 -16 30 -16 22 0 -19 48 -47 55 -25 6 -25 8 -10 19 17
12 16 14 -5 23 -21 11 -21 11 13 26 31 14 33 16 15 22 -11 4 -29 10 -40 15
-11 5 -28 11 -37 14 -10 3 -18 10 -18 15 0 14 63 61 82 61 8 0 22 17 31 38 9
21 35 53 57 70 96 78 167 153 222 236 32 48 73 103 91 120 17 18 49 52 70 74
41 45 48 48 78 32 15 -8 19 -7 19 5 0 14 27 21 55 15 6 -1 25 -4 43 -6 31 -4
32 -3 32 29 0 21 -8 41 -20 52 -11 10 -20 26 -20 36 0 10 -8 22 -17 28 -15 8
-18 23 -17 88 0 43 6 88 13 102 8 14 43 37 87 57 76 35 103 55 38 28 -20 -8
-38 -13 -41 -11 -4 5 167 134 206 155 30 15 39 8 17 -13 -18 -18 -21 -35 -7
-35 5 0 35 25 65 56 31 30 62 54 68 52 6 -2 3 -11 -8 -23 -13 -13 -15 -20 -6
-23 6 -2 12 -13 12 -24 0 -17 3 -18 15 -8 8 7 15 21 15 31 0 22 15 25 23 5 4
-9 14 -12 25 -9 16 4 21 -2 27 -29 4 -18 12 -39 17 -45 6 -7 8 -22 5 -34 -7
-27 21 -99 38 -99 20 0 23 -8 40 -121 24 -155 26 -205 14 -304 -5 -49 -10
-114 -9 -144 1 -29 -4 -66 -10 -82 -14 -32 -79 -79 -107 -76 -17 1 -19 7 -15
54 5 58 -10 86 -49 96 -26 7 -33 -12 -24 -70 9 -62 49 -103 100 -103 30 0 36
-3 31 -16 -3 -9 3 -28 14 -44 24 -33 25 -48 5 -74 -8 -11 -15 -36 -15 -56 0
-20 -4 -40 -10 -46 -9 -9 -7 -42 15 -254 7 -73 26 -136 45 -152 25 -20 26 -46
3 -65 -17 -13 -16 -14 7 -8 14 4 39 8 55 9 28 1 30 -2 33 -37 2 -23 -3 -48
-12 -62 -17 -26 -22 -110 -7 -119 25 -16 -11 -146 -40 -146 -5 0 -9 -7 -9 -15
0 -13 52 -15 405 -15 412 0 429 1 396 35 -5 6 -11 24 -13 40 -2 25 -7 29 -25
27 -19 -3 -23 2 -23 22 0 14 6 31 13 37 9 9 11 27 7 60 -3 25 -3 55 0 65 4 10
-3 44 -16 76 l-23 58 26 0 c25 0 26 0 8 20 -17 19 -17 21 1 41 19 21 20 55 3
74 -13 13 -11 82 2 91 8 4 7 9 -2 15 -11 7 -11 11 -2 17 18 11 34 60 22 64
-13 4 -15 40 -5 94 5 30 4 45 -7 55 -21 22 -37 55 -37 78 0 24 10 27 29 8 11
-10 13 -8 7 13 -3 14 -6 30 -6 37 0 7 -7 10 -15 7 -21 -8 -19 13 3 26 14 8 12
9 -10 4 -26 -6 -28 -4 -28 29 0 73 -12 127 -29 128 -9 0 -11 3 -5 5 18 7 5 42
-24 65 -19 15 -23 22 -14 31 7 7 12 22 12 35 0 13 5 23 11 23 14 0 7 50 -12
95 -17 40 -20 155 -4 155 7 0 15 9 18 20 4 17 14 20 54 20 54 0 172 27 248 57
64 25 85 20 113 -23 13 -20 25 -34 28 -31 2 2 1 36 -2 75 -5 56 -10 71 -25 75
-9 3 -22 0 -27 -5 -15 -15 -200 -14 -262 2 -63 15 -207 96 -277 155 -76 64
-205 202 -180 192 89 -34 157 -47 241 -46 l91 2 -80 7 c-95 8 -137 21 -226 67
-85 44 -101 62 -139 153 -42 103 -47 145 -22 201 25 55 42 116 42 152 0 19 5
27 17 27 15 0 14 2 -3 15 -18 14 -17 15 11 9 17 -4 44 -15 60 -26 28 -18 28
-19 5 -14 -14 3 -1 -6 29 -20 30 -14 67 -35 82 -47 15 -12 49 -38 75 -57 44
-33 137 -140 163 -187 14 -27 31 -30 31 -7 0 13 3 14 14 5 19 -16 25 2 16 52
-8 43 -1 125 11 133 12 7 -8 54 -42 96 -24 30 -31 53 -39 115 -22 176 -22 176
-91 263 -40 51 -41 54 -23 68 18 14 18 14 -4 9 -12 -3 -20 -2 -17 2 2 5 -18
32 -45 61 -80 86 -101 142 -121 330 -11 98 -5 250 10 260 5 3 11 41 13 85 4
68 2 87 -17 125 -25 53 -93 161 -109 175 -22 19 -74 110 -89 156 -15 42 -26
223 -15 234 8 8 -4 65 -13 65 -5 0 -9 11 -9 24 0 13 -7 40 -15 59 -8 20 -14
60 -14 90 2 52 -14 120 -32 143 -5 6 -6 14 -2 18 10 9 3 117 -9 139 -10 20
-15 36 -32 118 -6 31 -16 62 -23 70 -6 8 -17 37 -23 64 -11 44 -69 174 -103
230 -39 64 -103 140 -181 217 -108 106 -173 137 -306 148 -88 6 -95 10 -164
76 -18 18 -77 34 -121 34 -23 0 -44 3 -48 6 -7 7 -159 11 -217 7z m210 -443
c0 -5 -4 -10 -10 -10 -5 0 -10 5 -10 10 0 6 5 10 10 10 6 0 10 -4 10 -10z
m-13 -26 c17 -8 35 -14 41 -14 5 0 7 -11 4 -25 -3 -18 0 -25 12 -25 9 0 20
-10 25 -22 5 -13 17 -32 28 -43 20 -22 47 -73 48 -91 0 -6 5 -18 11 -25 6 -8
17 -30 24 -49 8 -19 20 -46 27 -59 6 -14 10 -28 7 -33 -3 -4 2 -8 10 -8 10 0
16 -9 16 -24 0 -14 4 -27 9 -30 12 -8 37 -89 51 -171 7 -38 21 -106 31 -149
11 -44 17 -81 14 -84 -2 -2 3 -19 13 -36 14 -26 16 -61 17 -207 0 -109 -4
-181 -11 -190 -6 -8 -25 -61 -43 -119 -18 -58 -37 -114 -41 -125 -5 -11 -15
-41 -23 -66 -20 -63 -83 -160 -108 -166 -12 -4 -18 -11 -15 -20 3 -8 -4 -18
-19 -25 -14 -6 -25 -14 -25 -18 0 -3 -16 -12 -36 -19 -28 -10 -38 -10 -47 -1
-9 9 -9 14 0 17 9 3 9 10 1 29 -12 25 -32 32 -43 14 -3 -5 -14 -9 -23 -9 -16
1 -15 2 0 6 27 7 60 90 47 115 -9 17 -8 23 5 30 12 7 15 23 13 73 -1 36 -5 65
-9 65 -5 0 -8 9 -8 20 0 11 -5 17 -12 15 -13 -5 -38 37 -38 62 0 7 -7 13 -15
13 -9 0 -15 9 -15 21 0 12 -8 23 -20 26 -11 3 -20 10 -20 17 -1 16 -37 55 -90
96 -25 19 -53 45 -63 57 -10 13 -24 23 -32 23 -7 0 -18 7 -25 15 -7 8 -19 15
-27 15 -17 0 -14 -22 8 -77 12 -29 11 -35 -3 -49 -15 -15 -21 -15 -74 5 -61
22 -96 37 -126 52 -10 5 -27 9 -37 9 -11 0 -23 5 -26 10 -3 6 -15 10 -25 10
-11 0 -24 6 -31 13 -7 7 -31 11 -65 9 -87 -6 -84 30 5 80 22 12 31 24 31 43 0
29 -20 33 -64 10 -15 -8 -34 -15 -41 -15 -7 0 -43 -13 -80 -30 -72 -32 -118
-37 -157 -17 -14 7 -46 11 -71 9 -38 -3 -47 -8 -47 -23 0 -10 -3 -19 -7 -19
-5 0 -16 -15 -26 -32 -18 -32 -19 -32 -34 -13 -11 15 -14 36 -10 85 9 115 55
213 122 265 31 23 35 24 50 9 9 -9 19 -14 22 -11 3 4 17 0 32 -7 49 -25 170
-46 265 -46 57 0 96 -4 96 -10 0 -20 33 -9 60 20 15 16 36 48 47 71 26 54 79
76 123 51 36 -21 54 -52 70 -122 16 -70 25 -82 100 -136 58 -43 67 -46 156
-56 73 -8 98 -8 107 1 9 10 8 15 -8 26 -11 8 -25 19 -32 25 -7 5 -19 10 -27
10 -8 0 -18 5 -22 11 -6 11 53 9 204 -7 45 -5 52 -3 52 12 0 23 -93 109 -147
135 -24 12 -41 25 -37 30 3 5 -2 9 -10 9 -8 0 -27 11 -42 25 -22 21 -25 27
-14 40 10 12 9 15 -6 15 -40 1 31 29 74 30 38 0 42 3 42 24 0 37 -67 64 -181
72 -55 4 -104 13 -118 21 -17 11 -26 12 -34 4 -27 -27 -187 -5 -187 25 0 7
-17 15 -37 19 -21 4 -43 11 -49 16 -7 5 -22 12 -35 14 -12 3 -39 16 -60 30
-21 14 -43 25 -49 25 -5 0 -10 5 -10 11 0 5 -14 15 -31 21 -23 8 -29 16 -27
32 2 13 11 21 23 22 45 2 102 17 131 35 17 11 38 19 47 19 8 0 17 9 20 20 3
13 17 22 36 26 17 4 31 13 31 20 0 7 9 18 20 24 22 12 24 54 3 72 -19 16 0 42
60 82 43 29 69 37 147 49 107 15 210 12 257 -9z m-467 -69 c-7 -8 -17 -12 -22
-9 -6 4 -5 10 3 15 22 14 33 10 19 -6z m107 -1312 c31 -46 42 -93 19 -85 -5 2
-12 -1 -16 -7 -4 -8 -40 0 -114 24 -59 19 -114 35 -122 35 -24 0 -114 41 -114
52 0 6 10 7 23 4 44 -13 130 -25 138 -20 5 3 9 11 9 19 0 23 32 35 89 32 53
-2 55 -3 88 -54z m-334 -103 c12 -17 19 -19 41 -10 30 11 60 1 70 -25 4 -12
10 -14 25 -5 23 12 47 5 55 -17 6 -14 9 -13 27 3 20 18 21 18 35 -1 18 -25 17
-35 -6 -65 -15 -20 -21 -23 -31 -12 -7 6 -32 12 -55 12 -24 0 -46 5 -49 10 -5
8 -11 7 -20 0 -17 -14 -72 -4 -82 15 -5 8 -15 13 -23 13 -47 -3 -67 4 -76 25
-14 30 -7 52 19 65 34 16 55 14 70 -8z m-107 -17 c-10 -10 -19 5 -10 18 6 11
8 11 12 0 2 -7 1 -15 -2 -18z m320 -150 c-7 -7 -77 -5 -85 2 -2 3 17 5 44 5
27 0 45 -3 41 -7z m159 -66 c16 -3 21 -15 26 -63 4 -32 11 -71 17 -86 7 -17 8
-37 3 -50 -10 -26 -43 -59 -63 -62 -7 -1 -20 -6 -28 -11 -53 -33 -92 -47 -145
-51 -74 -5 -123 10 -131 39 -5 24 -52 45 -118 54 -45 6 -104 38 -84 45 7 3 30
3 51 2 22 -2 35 1 32 7 -4 5 -13 9 -21 9 -8 0 -14 2 -14 4 0 2 -3 11 -6 20 -4
11 0 16 14 16 25 0 89 -26 97 -40 4 -7 19 -4 41 10 20 11 46 20 60 20 13 0 24
5 24 10 0 6 9 20 20 32 11 12 20 30 20 40 0 19 28 38 59 38 11 0 26 6 33 14
12 14 59 15 113 3z m-610 -49 c10 -13 20 -18 22 -11 2 6 13 9 23 6 14 -4 20
-14 20 -32 -1 -24 -2 -25 -14 -8 -13 17 -15 16 -21 -12 -6 -29 -25 -44 -25
-20 0 6 -9 8 -20 4 -15 -5 -20 -2 -20 14 0 11 -7 24 -16 29 -14 8 -14 12 -3
30 17 28 30 28 54 0z m860 -9 c10 -15 -1 -23 -20 -15 -9 3 -13 10 -10 16 8 13
22 13 30 -1z m-745 -59 c0 -5 -2 -10 -4 -10 -3 0 -8 5 -11 10 -3 6 -1 10 4 10
6 0 11 -4 11 -10z m-40 -41 c0 -5 -4 -7 -10 -4 -5 3 -10 1 -10 -6 0 -7 -3 -10
-6 -6 -8 7 4 27 17 27 5 0 9 -5 9 -11z m1307 -37 c-8 -10 -14 -9 -30 5 -19 18
-19 18 2 21 11 2 21 9 22 15 0 7 4 3 8 -8 5 -12 4 -25 -2 -33z m-1931 -334 c0
-18 2 -71 3 -118 5 -119 3 -132 -14 -95 -16 35 -20 181 -5 219 12 34 15 33 16
-6z m-59 -125 c-3 -10 -5 -2 -5 17 0 19 2 27 5 18 2 -10 2 -26 0 -35z m59
-150 c-10 -10 -19 5 -10 18 6 11 8 11 12 0 2 -7 1 -15 -2 -18z m3008 -119 c3
-8 2 -12 -4 -9 -6 3 -10 10 -10 16 0 14 7 11 14 -7z m-358 -286 c-2 -37 -31
-62 -46 -38 -14 21 -12 30 5 30 8 0 15 9 15 20 0 11 6 20 14 20 9 0 13 -11 12
-32z m473 -49 c15 -43 14 -79 -2 -79 -9 0 -13 -12 -13 -37 1 -21 -3 -39 -9
-41 -14 -5 -30 62 -20 84 5 11 7 23 6 29 -4 17 10 75 18 75 5 0 14 -14 20 -31z
m-1879 -59 c0 -5 -4 -10 -10 -10 -5 0 -10 5 -10 10 0 6 5 10 10 10 6 0 10 -4
10 -10z m445 -562 c-3 -7 -21 -24 -41 -37 -24 -16 -32 -27 -25 -34 7 -7 -2
-23 -30 -49 -46 -44 -100 -53 -118 -19 -12 22 -3 87 14 101 39 32 210 65 200
38z m1552 -214 c-3 -3 -12 -4 -19 -1 -8 3 -5 6 6 6 11 1 17 -2 13 -5z m-775
-260 c-7 -12 -9 -6 -7 22 3 49 7 57 12 22 2 -15 0 -35 -5 -44z m85 20 c3 -8
11 -14 19 -14 8 0 14 -4 14 -10 0 -5 7 -10 15 -10 22 0 71 -33 95 -63 12 -15
25 -25 30 -22 13 8 31 -21 24 -39 -3 -9 -2 -16 4 -16 29 0 127 -122 118 -146
-7 -17 10 -19 18 -1 3 6 5 0 3 -14 -1 -14 4 -33 11 -42 8 -9 15 -26 17 -39 5
-42 17 -78 26 -78 5 0 9 -15 9 -32 0 -20 3 -28 8 -21 5 8 13 -5 21 -35 11 -44
11 -48 -10 -64 -16 -14 -17 -18 -6 -18 25 0 32 -22 11 -38 -13 -10 -15 -16 -6
-19 13 -5 16 -31 6 -58 -5 -12 -9 -13 -14 -5 -10 16 -77 17 -92 2 -10 -10 -10
-15 2 -22 11 -7 12 -10 2 -10 -7 0 -20 -7 -28 -15 -20 -19 -48 -19 -64 0 -7 8
-19 15 -26 15 -8 0 -14 6 -14 13 0 7 -11 29 -25 49 -14 20 -25 44 -25 53 0 8
-7 18 -16 22 -8 3 -13 12 -10 19 3 7 -2 17 -11 22 -19 11 -73 147 -73 184 0
15 -4 29 -9 33 -6 3 -13 27 -16 53 -8 63 -35 182 -48 209 -5 12 -7 31 -4 42 3
12 1 21 -5 21 -5 0 -7 4 -4 9 4 5 3 17 0 26 -5 13 -8 14 -15 3 -6 -9 -9 -3 -9
17 0 24 2 27 11 15 8 -12 9 -10 4 9 -5 14 -2 26 5 31 17 10 50 0 57 -16z
m-2263 -146 l18 -28 -27 0 c-20 0 -26 4 -22 14 4 10 1 13 -8 9 -9 -3 -18 3
-21 13 -4 11 -18 34 -31 52 -13 17 -21 37 -17 43 7 12 76 -53 108 -103z m1047
65 c4 -36 3 -109 -2 -101 -3 5 -12 -11 -19 -37 -13 -45 -30 -69 -30 -41 0 25
21 170 26 178 7 10 24 10 25 1z m155 -32 c20 17 19 -15 -2 -35 -21 -21 -21
-21 -21 17 0 17 2 26 5 19 3 -10 7 -10 18 -1z m-276 -261 c-20 -13 -57 -13
-44 -1 10 10 46 19 54 14 2 -2 -2 -8 -10 -13z m-1865 -200 c-3 -5 -11 -10 -16
-10 -6 0 -7 5 -4 10 3 6 11 10 16 10 6 0 7 -4 4 -10z m315 -51 c0 -6 -7 -6
-20 1 -11 6 -20 15 -20 21 0 6 7 6 20 -1 11 -6 20 -15 20 -21z m1275 -19 c-3
-5 -12 -10 -18 -10 -7 0 -6 4 3 10 19 12 23 12 15 0z m-117 -58 c-10 -11 -13
-11 -20 3 -5 8 -13 13 -19 10 -5 -4 -9 0 -9 9 0 12 5 12 30 3 23 -9 27 -14 18
-25z m-1054 22 c24 -9 19 -21 -9 -26 -30 -6 -39 1 -24 19 13 15 12 15 33 7z
m1266 -14 c0 -5 -4 -10 -9 -10 -6 0 -13 5 -16 10 -3 6 1 10 9 10 9 0 16 -4 16
-10z m-1048 -156 c15 -8 38 -14 51 -14 14 0 30 -7 37 -15 7 -8 27 -15 46 -15
41 0 53 -16 16 -23 -15 -3 -28 -1 -30 4 -2 5 -9 9 -15 9 -7 0 -25 7 -42 16
-16 8 -38 13 -49 10 -23 -6 -106 28 -106 43 0 13 54 4 92 -15z m655 -20 c-3
-3 -12 -4 -19 -1 -8 3 -5 6 6 6 11 1 17 -2 13 -5z m239 -54 c23 -17 39 -50 24
-50 -6 0 -10 6 -10 14 0 8 -13 19 -30 25 -16 5 -30 15 -30 20 0 15 -30 14 -31
-1 0 -10 -2 -10 -5 -1 -3 7 -12 9 -20 6 -8 -3 -14 -1 -14 5 0 6 -3 17 -6 25
-4 12 5 11 48 -6 29 -12 62 -29 74 -37z m-187 24 c6 -15 9 -29 6 -32 -3 -4 -8
4 -12 16 -3 12 -12 22 -20 22 -8 0 -11 5 -8 10 10 17 21 11 34 -16z m-1114
-36 c4 -16 5 -28 2 -28 -11 0 -37 51 -31 61 8 14 21 0 29 -33z m615 11 c0 -6
-4 -7 -10 -4 -5 3 -10 11 -10 16 0 6 5 7 10 4 6 -3 10 -11 10 -16z m31 -22
c-18 -18 -21 -19 -21 -5 0 22 33 55 38 38 3 -7 -5 -22 -17 -33z m399 1 c0 -16
-3 -16 -20 -6 -11 7 -20 15 -20 18 0 3 9 6 20 6 13 0 20 -7 20 -18z m130 7 c0
-8 -7 -15 -15 -15 -9 0 -12 6 -9 15 4 8 10 15 15 15 5 0 9 -7 9 -15z m-600 1
c0 -11 -19 -15 -25 -6 -3 5 1 10 9 10 9 0 16 -2 16 -4z m525 -26 c3 -5 -1 -10
-10 -10 -9 0 -13 5 -10 10 3 6 8 10 10 10 2 0 7 -4 10 -10z m282 -36 c-3 -3
-12 -4 -19 -1 -8 3 -5 6 6 6 11 1 17 -2 13 -5z m78 -30 c29 -24 29 -25 5 -18
-25 7 -70 33 -70 40 0 13 40 0 65 -22z m-727 7 c50 -10 54 -13 47 -33 -15 -39
-267 -28 -278 12 -3 10 -2 21 1 24 8 9 181 6 230 -3z m655 -8 c-7 -2 -21 -2
-30 0 -10 3 -4 5 12 5 17 0 24 -2 18 -5z m-503 -19 c22 -9 26 -12 10 -9 -14 2
-40 5 -58 5 -20 0 -31 4 -27 10 8 13 33 11 75 -6z m718 -7 c29 1 28 -8 -4 -37
-15 -15 -28 -21 -32 -14 -4 5 -27 11 -52 13 -28 1 -52 10 -65 22 -17 17 -18
19 -2 19 9 0 17 -4 17 -10 0 -15 32 -12 54 5 12 9 28 12 40 8 12 -4 31 -7 44
-6z m-418 -197 c0 -5 -9 -10 -21 -10 -11 0 -17 5 -14 10 3 6 13 10 21 10 8 0
14 -4 14 -10z m-630 -20 c0 -5 -2 -10 -4 -10 -3 0 -8 5 -11 10 -3 6 -1 10 4
10 6 0 11 -4 11 -10z m45 -9 c-3 -6 -11 -11 -17 -11 -6 0 -6 6 2 15 14 17 26
13 15 -4z m1057 -6 c53 -10 66 -29 33 -51 -14 -9 -28 -14 -32 -10 -3 3 -11 1
-18 -4 -11 -9 -73 3 -158 30 -16 5 -36 6 -45 3 -12 -4 -11 0 5 16 27 25 74 28
109 5 19 -13 28 -14 37 -5 8 8 8 11 -1 11 -7 0 -12 5 -12 11 0 7 9 9 23 6 12
-3 39 -9 59 -12z m172 -33 c27 -13 54 -29 60 -36 15 -16 57 -76 54 -76 -2 0
-19 6 -38 13 -100 38 -121 51 -150 93 l-29 44 27 -6 c15 -4 49 -18 76 -32z
m-1184 -1 c0 -5 -7 -12 -16 -15 -13 -5 -14 -9 -4 -21 7 -8 8 -15 3 -15 -5 0
-14 -13 -20 -30 -7 -17 -19 -30 -29 -30 -14 0 -14 3 5 19 13 11 20 25 16 30
-3 6 -1 11 4 11 19 0 12 20 -6 21 -14 0 -15 2 -3 6 8 3 19 12 23 19 9 16 27
19 27 5z m150 -11 c0 -5 -4 -10 -9 -10 -6 0 -13 5 -16 10 -3 6 1 10 9 10 9 0
16 -4 16 -10z m-90 -30 c0 -5 -4 -10 -10 -10 -5 0 -10 5 -10 10 0 6 5 10 10
10 6 0 10 -4 10 -10z m1360 -4 c0 -2 -11 -6 -25 -8 -14 -3 -25 -1 -25 3 0 5
11 9 25 9 14 0 25 -2 25 -4z m-1316 -46 c-4 -8 -9 -25 -11 -37 -6 -28 -33 -30
-33 -3 0 11 4 20 10 20 5 0 7 13 3 31 -6 30 -5 30 16 18 13 -9 19 -20 15 -29z
m170 1 c10 -15 -22 -20 -34 -5 -10 11 -9 14 8 14 12 0 23 -4 26 -9z m-110 -27
c9 -3 16 -12 16 -20 0 -18 -66 -67 -80 -59 -14 9 -13 36 2 32 6 -1 14 6 16 17
3 13 0 16 -10 10 -10 -6 -10 -5 1 9 14 18 29 21 55 11z"/>
<path d="M2617 4971 c-4 -17 -3 -21 5 -13 5 5 8 16 6 23 -3 8 -7 3 -11 -10z"/>
<path d="M2583 4855 c-3 -9 -3 -18 -1 -21 3 -3 8 4 11 16 6 23 -1 27 -10 5z"/>
<path d="M2571 4804 c0 -11 3 -14 6 -6 3 7 2 16 -1 19 -3 4 -6 -2 -5 -13z"/>
<path d="M2296 3994 c-5 -14 -4 -15 9 -4 17 14 19 20 6 20 -5 0 -12 -7 -15
-16z"/>
<path d="M2220 3689 c0 -5 5 -7 10 -4 6 3 10 8 10 11 0 2 -4 4 -10 4 -5 0 -10
-5 -10 -11z"/>
<path d="M2055 3370 c-10 -11 -14 -20 -9 -20 5 0 15 9 22 20 7 11 11 20 9 20
-2 0 -12 -9 -22 -20z"/>
<path d="M5671 2544 c0 -11 3 -14 6 -6 3 7 2 16 -1 19 -3 4 -6 -2 -5 -13z"/>
<path d="M3521 2464 c0 -11 3 -14 6 -6 3 7 2 16 -1 19 -3 4 -6 -2 -5 -13z"/>
<path d="M3890 2375 c0 -9 5 -15 11 -13 6 2 11 8 11 13 0 5 -5 11 -11 13 -6 2
-11 -4 -11 -13z"/>
<path d="M6692 2342 c-26 -4 -20 -22 8 -22 20 0 36 16 23 22 -5 2 -18 2 -31 0z"/>
<path d="M7186 1682 c-3 -6 0 -13 6 -16 7 -3 -14 -4 -47 -2 -33 3 -52 2 -42 0
23 -7 22 -24 -3 -24 -12 0 -20 7 -20 16 0 13 -6 15 -27 8 -16 -4 -40 -7 -55
-6 -66 5 -85 4 -123 -1 -71 -10 -199 -38 -218 -49 -11 -5 -42 -18 -70 -28 -80
-28 -248 -98 -287 -119 -19 -10 -68 -31 -108 -45 -133 -47 -129 -42 -137 -143
-6 -80 -31 -265 -56 -418 -19 -114 -29 -251 -38 -520 -6 -148 -12 -284 -16
-302 l-6 -33 236 0 c129 0 235 3 235 6 0 3 -12 30 -26 59 -14 30 -22 60 -18
66 4 7 -1 18 -10 25 -10 7 -15 18 -11 23 12 21 24 1 51 -89 l28 -90 438 0 438
0 0 840 0 840 -39 0 c-22 0 -46 3 -54 6 -8 3 -18 1 -21 -4z m-236 -42 c0 -5
-7 -10 -16 -10 -8 0 -12 5 -9 10 3 6 10 10 16 10 5 0 9 -4 9 -10z m310 -453
c0 -9 -146 -1 -162 10 -24 14 2 17 77 9 47 -5 85 -14 85 -19z m-1110 -499 c0
-11 -70 -30 -88 -23 -13 5 -7 12 28 30 42 22 59 20 60 -7z m-110 -18 c0 -5 -5
-10 -11 -10 -5 0 -7 5 -4 10 3 6 8 10 11 10 2 0 4 -4 4 -10z m-26 -31 c-8 -14
-24 -10 -24 6 0 9 6 12 15 9 8 -4 12 -10 9 -15z m209 -25 c1 -20 -2 -28 -12
-26 -11 2 -10 -3 3 -23 10 -15 15 -34 11 -43 -5 -13 -10 -9 -25 16 -23 37 -25
59 -10 98 13 33 30 21 33 -22z m69 -178 c7 5 9 1 5 -9 -4 -12 -2 -14 10 -10
12 5 15 2 10 -10 -19 -49 -18 -86 3 -135 12 -28 20 -57 17 -64 -3 -9 -7 -6
-12 7 -4 11 -14 35 -22 53 -8 19 -17 59 -19 90 -3 31 -9 59 -15 60 -5 2 -9 13
-9 25 1 20 2 20 11 4 6 -9 15 -14 21 -11z m78 -110 c0 -3 -4 -8 -10 -11 -5 -3
-10 -1 -10 4 0 6 5 11 10 11 6 0 10 -2 10 -4z m0 -67 c0 -11 -4 -17 -10 -14
-5 3 -10 15 -10 26 0 11 5 17 10 14 6 -3 10 -15 10 -26z m60 -83 c0 -3 -4 -8
-10 -11 -5 -3 -10 -1 -10 4 0 6 5 11 10 11 6 0 10 -2 10 -4z"/>
<path d="M2928 1673 c7 -3 16 -2 19 1 4 3 -2 6 -13 5 -11 0 -14 -3 -6 -6z"/>
<path d="M0 1635 c0 -8 7 -15 16 -15 14 0 14 3 4 15 -7 8 -14 15 -16 15 -2 0
-4 -7 -4 -15z"/>
<path d="M557 1474 c-12 -13 3 -21 29 -16 19 3 22 7 12 13 -16 10 -32 11 -41
3z"/>
<path d="M4333 1463 c-27 -5 -31 -33 -5 -33 10 0 25 9 35 20 17 20 14 22 -30
13z"/>
<path d="M4727 1400 c-3 -11 -1 -20 4 -20 5 0 9 9 9 20 0 11 -2 20 -4 20 -2 0
-6 -9 -9 -20z"/>
<path d="M4752 1367 c-9 -10 -7 -24 8 -55 20 -41 33 -51 44 -33 6 9 -4 37 -28
79 -11 18 -15 20 -24 9z"/>
<path d="M2592 1254 c-23 -10 -34 -23 -39 -44 -3 -17 -9 -30 -14 -30 -5 0 -9
-9 -9 -20 0 -20 33 -29 43 -12 2 4 2 2 1 -5 -2 -7 1 -15 7 -19 7 -4 6 -10 -1
-19 -12 -14 -50 -9 -50 8 0 5 -15 25 -33 43 -24 22 -38 29 -48 23 -8 -5 -25
-9 -39 -9 l-25 -1 25 -14 c14 -8 21 -14 16 -15 -6 0 3 -13 19 -30 15 -16 31
-27 36 -25 12 8 39 -6 32 -18 -4 -7 6 -8 30 -4 19 3 45 3 57 0 20 -5 18 -8
-16 -24 -22 -10 -37 -19 -34 -19 3 -1 35 -3 72 -5 37 -2 81 -6 98 -10 l32 -7
-18 29 c-10 15 -23 31 -28 34 -5 4 -6 14 -3 23 6 14 12 11 38 -19 19 -22 29
-41 25 -51 -5 -13 -1 -15 19 -10 19 5 23 3 19 -9 -4 -8 -1 -15 5 -15 6 0 11 5
11 10 0 7 6 7 18 2 9 -5 32 -10 50 -10 18 0 40 -6 47 -12 8 -6 24 -10 37 -8
17 2 22 8 20 26 -2 15 2 22 12 22 21 0 75 -57 82 -87 6 -22 34 -33 34 -13 0 6
7 10 15 10 9 0 12 -6 9 -15 -5 -12 2 -15 27 -14 19 0 28 3 22 6 -7 2 -13 10
-13 17 0 22 -34 46 -58 39 -29 -7 -29 18 0 36 l22 14 -22 8 c-22 8 -22 10 -7
33 11 16 13 26 6 31 -6 3 -11 10 -11 15 0 4 14 -5 31 -21 50 -47 67 -38 24 13
-14 16 -25 42 -25 58 0 22 -7 30 -32 41 -18 7 -39 21 -46 31 -7 10 -19 18 -25
18 -7 0 -6 -4 3 -10 8 -5 11 -10 6 -10 -5 0 -1 -9 9 -20 10 -11 15 -23 12 -27
-4 -3 -7 -1 -7 5 0 7 -6 12 -13 12 -8 0 -24 11 -37 25 -23 24 -47 35 -35 15 8
-13 -9 -12 -135 5 -99 13 -106 13 -124 -5 -25 -25 -78 -9 -74 23 4 26 -9 29
-50 11z"/>
<path d="M5630 1140 c0 -5 5 -10 10 -10 6 0 10 5 10 10 0 6 -4 10 -10 10 -5 0
-10 -4 -10 -10z"/>
<path d="M1004 1095 c-18 -15 -18 -15 5 -13 14 2 26 9 29 16 5 17 -10 15 -34
-3z"/>
<path d="M1060 1100 c0 -5 7 -10 16 -10 8 0 12 5 9 10 -3 6 -10 10 -16 10 -5
0 -9 -4 -9 -10z"/>
<path d="M3240 940 c0 -5 7 -10 15 -10 8 0 15 5 15 10 0 6 -7 10 -15 10 -8 0
-15 -4 -15 -10z"/>
<path d="M3660 928 c0 -9 5 -20 11 -23 17 -11 20 0 4 21 -13 17 -14 17 -15 2z"/>
<path d="M4583 883 c9 -2 23 -2 30 0 6 3 -1 5 -18 5 -16 0 -22 -2 -12 -5z"/>
<path d="M0 734 c0 -53 1 -54 25 -48 18 4 27 1 31 -10 5 -13 23 -16 96 -16 55
0 99 -5 116 -14 15 -7 73 -16 129 -20 93 -6 104 -5 140 15 21 12 76 32 123 45
46 12 86 26 87 30 2 5 -64 7 -145 6 -109 -3 -160 0 -191 10 -31 11 -59 12
-111 6 -45 -5 -84 -4 -112 3 -24 6 -59 13 -78 16 -19 2 -44 8 -55 13 -55 23
-55 23 -55 -36z"/>
<path d="M3880 472 c0 -4 9 -13 20 -20 22 -13 27 -3 8 16 -14 14 -28 16 -28 4z"/>
<path d="M65 410 c3 -5 12 -7 20 -3 21 7 19 13 -6 13 -11 0 -18 -4 -14 -10z"/>
<path d="M550 326 c0 -18 17 -29 30 -21 8 5 7 11 -1 21 -15 18 -29 18 -29 0z"/>
<path d="M1980 325 c0 -18 10 -23 68 -29 32 -3 42 -1 42 10 0 13 -30 19 -67
15 -6 -1 -14 3 -18 9 -9 15 -25 12 -25 -5z"/>
<path d="M4615 244 c-28 -13 -26 -14 35 -8 90 9 121 23 50 23 -30 -1 -68 -7
-85 -15z"/>
<path d="M5691 244 c0 -11 3 -14 6 -6 3 7 2 16 -1 19 -3 4 -6 -2 -5 -13z"/>
<path d="M4408 213 c7 -3 16 -2 19 1 4 3 -2 6 -13 5 -11 0 -14 -3 -6 -6z"/>
<path d="M1084 85 c-9 -23 9 -37 42 -33 l29 3 -33 23 c-28 21 -33 22 -38 7z"/>
<path d="M718 3 c6 -2 18 -2 25 0 6 3 1 5 -13 5 -14 0 -19 -2 -12 -5z"/>
</g>
</svg>
